<svg width="177" height="32" viewBox="0 0 177 32" fill="none" xmlns="http://www.w3.org/2000/svg">
<path d="M59.2449 6.47016H53.3983V26.7381H59.2449V6.47016Z" fill="white"/>
<path d="M176.214 6.43118H156.687V11.5761H163.547V26.3484L169.393 32V11.5761H176.214V6.43118Z" fill="white"/>
<path d="M76.3167 16.0974L66.6505 6.47016H62.5969V26.6991H68.4434V16.4093L78.7723 26.6991H82.1243V6.47016H76.3167V16.0974Z" fill="white"/>
<path d="M105.004 11.6151V6.47016H89.8807C87.4641 6.47016 85.4763 8.45798 85.4763 10.8745V22.3337C85.4763 24.7503 87.4641 26.7381 89.8807 26.7381H105.004V21.5932H91.3228V11.6151H105.004Z" fill="white"/>
<path d="M38.899 6.47016V8.02923L27.1279 19.8002V26.7381H28.3362L33.5201 21.5932H44.1998V26.7381H50.0463V6.47016H38.899ZM38.6651 16.4482L44.1998 10.9135V16.4482H38.6651Z" fill="white"/>
<path d="M119.932 8.18514L108.356 19.8002V26.7381H109.564L114.748 21.5542H125.428V26.6991H131.274V6.43118H119.932V8.18514ZM119.893 16.4482L125.428 10.9135V16.4482H119.893Z" fill="white"/>
<path d="M139.031 6.47016C136.614 6.47016 134.626 8.419 134.626 10.8745V15.8636C134.626 17.6955 136.107 19.1766 137.939 19.1766C141.993 19.1766 148.307 19.1766 148.307 19.1766V21.6322H139.381L134.626 26.3873V26.7381H149.749C152.166 26.7381 154.154 24.7893 154.154 22.3337V17.3447C154.154 15.5128 152.672 14.0317 150.84 14.0317H140.473V11.6151H149.398L154.154 6.85993V6.50914H139.031V6.47016Z" fill="white"/>
<path d="M11.9659 11.6151L0.350792 0C0.194884 0.0779537 0.155907 0.0779537 0 0.155907V7.99026L12.0049 19.9951C12.1218 19.9951 12.1998 19.9951 12.3167 19.9951L18.3191 13.9927V26.2704L23.9708 31.9221C24.1267 31.8441 24.1657 31.8441 24.3216 31.7661V5.53471C24.2436 5.45676 24.2046 5.41778 24.1267 5.33983H18.2801L12.2777 11.6151C12.1608 11.6151 12.1218 11.6151 11.9659 11.6151Z" fill="white"/>
<path d="M0.350792 31.922L8.06821 24.2046L0.350792 16.4872C0.194884 16.5651 0.155907 16.5651 0 16.6431V31.7661C0.155907 31.8441 0.194884 31.8441 0.350792 31.922Z" fill="#E8222E"/>
</svg>
