<svg width="13" height="24" viewBox="0 0 13 24" fill="none" xmlns="http://www.w3.org/2000/svg">
<path d="M9.53114 0C10.1799 0 10.8286 0.0342759 11.4705 0.0616967C11.8915 0.075407 12.3125 0.137104 12.7059 0.178235L12.6783 4.04456C12.5609 4.04456 12.4643 4.04456 12.3677 4.04456C11.9398 4.04456 11.5119 4.0377 11.084 4.0377C10.7665 4.0377 10.4422 4.0377 10.1247 4.05141C9.09634 4.09255 8.33716 4.47644 8.28195 5.7515C8.24744 6.67009 8.22673 8.70608 8.22673 8.81577C8.28195 8.81577 9.29648 8.82262 10.3248 8.82262C10.8355 8.82262 11.3394 8.82262 11.6844 8.81577C11.9536 8.81577 12.2159 8.81577 12.5195 8.81577C12.3125 10.2965 12.1192 11.7224 11.9122 13.1551H8.22673L8.14391 24H3.61645L3.69927 13.1414H0L0.0345081 8.82262H3.75448V8.50043C3.76138 7.62982 3.74758 6.75921 3.78209 5.8886C3.79589 5.34019 3.8235 4.77806 3.92012 4.2365C4.16858 2.91345 4.78972 1.80291 5.90089 1.01457C6.87401 0.322194 7.98517 0.0342759 9.16535 0.00685518C9.28958 0 9.40691 0 9.53114 0Z" fill="#B8B8BD"/>
</svg>
