<svg width="24" height="24" viewBox="0 0 24 24" fill="none" xmlns="http://www.w3.org/2000/svg">
<path d="M18.4475 4.17426C18.4553 4.17426 18.463 4.17426 18.463 4.17426C19.253 4.17426 19.8957 4.81704 19.888 5.62246C19.8802 6.4124 19.2297 7.05518 18.4321 7.05518C17.6344 7.04744 16.9994 6.39691 17.0071 5.60698C17.0148 4.81704 17.6576 4.17426 18.4475 4.17426Z" fill="#B8B8BD"/>
<path d="M23.8529 6.02517C24.031 7.91481 24.1472 16.8364 23.5896 18.9274C22.8462 21.6612 21.0572 23.2798 18.2925 23.7289C17.2548 23.8993 14.4668 24 11.6711 24C8.81345 24 5.96354 23.8916 5.00325 23.6438C2.28499 22.939 0.658685 21.1655 0.225003 18.4085C-0.0925139 16.3795 -0.123491 6.97774 0.457333 4.9332C1.21628 2.27686 2.99747 0.712488 5.68475 0.271055C6.90835 0.0696999 9.2936 0 11.7021 0C13.9402 0 16.2015 0.0619555 17.5645 0.131655C19.2141 0.216844 20.7165 0.75121 21.9478 1.92062C23.1095 3.04356 23.7058 4.44531 23.8529 6.02517ZM21.5451 18.0058C21.8859 15.8993 21.8859 8.19361 21.6923 6.21878C21.4754 4.11229 20.1899 2.7183 18.0989 2.39303C17.0689 2.23814 14.5752 2.16844 12.097 2.16844C9.70405 2.16844 7.32654 2.2304 6.28106 2.34656C4.19784 2.59439 2.78837 3.87996 2.45537 5.96321C2.11462 8.17038 2.11462 16.4182 2.37018 18.0755C2.63349 19.8025 3.60927 20.9874 5.32851 21.4676C6.25783 21.7309 9.04578 21.8238 11.7795 21.8238C14.2964 21.8238 16.7669 21.7464 17.6962 21.6457C19.8181 21.4134 21.2121 20.1123 21.5451 18.0058Z" fill="#B8B8BD"/>
<path d="M12.0506 5.84705C15.4426 5.84705 18.1764 8.60407 18.1531 12.0039C18.1299 15.3959 15.3497 18.153 11.9499 18.153C8.55018 18.153 5.82418 15.3959 5.84741 11.9961C5.87065 8.59632 8.65086 5.83931 12.0506 5.84705ZM11.9654 15.9768C14.1493 15.9768 15.9383 14.2188 15.977 12.0349C16.0157 9.82769 14.2655 8.03872 12.0661 8.01549C12.0506 8.01549 12.0429 8.01549 12.0274 8.01549C9.84348 8.01549 8.05454 9.77348 8.01582 11.9574C7.9771 14.1568 9.72732 15.9535 11.9267 15.9768C11.9422 15.9768 11.9499 15.9768 11.9654 15.9768Z" fill="#B8B8BD"/>
</svg>
