<svg width="19" height="22" viewBox="0 0 19 22" fill="none" xmlns="http://www.w3.org/2000/svg">
<path d="M18.9504 8.90244C18.7735 8.92073 18.5906 8.92682 18.4077 8.93292C16.426 8.93292 14.5784 7.93292 13.493 6.27439V15.3171C13.493 19.0122 10.4991 22 6.81011 22C3.11499 22.0061 0.121094 19.0122 0.121094 15.3171C0.121094 11.6219 3.11499 8.63414 6.80402 8.63414C6.94426 8.63414 7.07841 8.64634 7.21865 8.65243V11.9451C7.0845 11.9268 6.94426 11.9024 6.80402 11.9024C4.91987 11.9024 3.38938 13.4329 3.38938 15.3171C3.38938 17.2012 4.91987 18.7317 6.80402 18.7317C8.68816 18.7317 10.3528 17.2439 10.3528 15.3597L10.3894 0H13.5418C13.8406 2.82927 16.115 5.03658 18.9504 5.2439V8.90244Z" fill="#B8B8BD"/>
</svg>
