<svg width="31" height="24" viewBox="0 0 31 24" fill="none" xmlns="http://www.w3.org/2000/svg">
<path d="M30.4 2.87016C30.1755 3.19818 29.951 3.50797 29.6985 3.79954C29.0437 4.59226 28.2767 5.29385 27.4255 5.89522L27.3132 6.08656C27.3413 6.9795 27.2945 7.88155 27.1729 8.77449C26.9297 10.6606 26.3685 12.4556 25.536 14.1686C24.6567 15.9362 23.5436 17.5399 22.1312 18.9431C19.7366 21.3394 16.8743 22.8793 13.5444 23.59C12.4032 23.8269 11.2527 23.9544 10.0741 23.9909C9.88702 24 9.69994 24 9.51286 24C6.14548 24 3.02129 23.1253 0.140308 21.385L0 21.2938C0.495754 21.3485 0.982154 21.3667 1.4592 21.3667C3.10548 21.3667 4.68628 21.0661 6.22966 20.4647C7.296 20.0364 8.27815 19.4898 9.19483 18.779C5.96775 18.6788 3.96603 16.41 3.44222 14.5695C3.82572 14.6424 4.21858 14.6788 4.60209 14.6788C5.1072 14.6788 5.61231 14.615 6.10806 14.5057L6.2016 14.4601C4.44308 14.0592 3.10548 13.1572 2.1888 11.6811C1.57145 10.7062 1.28148 9.63098 1.29083 8.46469C2.17009 8.92027 3.07742 9.16629 4.05957 9.19362C2.75003 8.27335 1.88012 7.0615 1.52468 5.52164C1.17858 3.97266 1.43114 2.50569 2.24492 1.12984C5.57489 4.99317 9.82154 7.11617 15.0223 7.47153C14.9849 7.22551 14.9568 7.01594 14.9194 6.80638C14.7604 5.37585 15.069 4.05467 15.8735 2.85194C16.8743 1.3303 18.2868 0.3918 20.1108 0.109339C20.4849 0.0273348 20.8684 0 21.2332 0C22.8608 0 24.3013 0.610478 25.536 1.78588C25.6108 1.84966 25.6763 1.8861 25.7605 1.8861C25.7886 1.8861 25.826 1.8861 25.854 1.87699C27.1355 1.61276 28.3515 1.16629 29.4833 0.528474L29.5675 0.482916C29.1185 1.8861 28.2112 2.9795 26.9204 3.78132C28.1364 3.65376 29.2869 3.33485 30.4 2.87016Z" fill="#B8B8BD"/>
</svg>
