<svg width="28" height="36" viewBox="0 0 28 36" fill="none" xmlns="http://www.w3.org/2000/svg">
<path d="M13.4945 13.0989L0.395603 0C0.21978 0.0879118 0.175824 0.0879118 0 0.175824V9.01096L13.5384 22.5494C13.6703 22.5494 13.7582 22.5494 13.8901 22.5494L20.6593 15.7802V29.6263L27.0329 35.9999C27.2087 35.912 27.2527 35.912 27.4285 35.8241V6.24174C27.3406 6.15383 27.2966 6.10987 27.2087 6.02196H20.6153L13.8461 13.0989C13.7142 13.0989 13.6703 13.0989 13.4945 13.0989Z" fill="#B8B8BD"/>
<path d="M0.395603 36L9.09888 27.2967L0.395603 18.5935C0.21978 18.6814 0.175824 18.6814 0 18.7693V35.8242C0.175824 35.9121 0.21978 35.9121 0.395603 36Z" fill="#B8B8BD"/>
</svg>
