<svg width="64" height="37" viewBox="0 0 64 37" fill="none" xmlns="http://www.w3.org/2000/svg">
<path fill-rule="evenodd" clip-rule="evenodd" d="M37.9506 19.3949C37.6455 19.0345 37.7564 18.5072 38.228 18.2576C38.3113 18.2021 38.3945 18.008 38.3667 17.897C38.3447 17.6004 38.3141 17.2992 38.2833 16.9975C38.2364 16.5369 38.1893 16.0745 38.1726 15.6222C38.1694 15.559 38.1645 15.4949 38.1595 15.4303L38.1594 15.4283C38.1205 14.9267 38.0805 14.41 38.8661 14.2628C38.853 14.2498 38.8401 14.2306 38.827 14.211L38.8247 14.2076C38.8108 14.1867 38.7968 14.1658 38.7829 14.1518C38.6997 14.138 38.6164 14.1171 38.5332 14.0963C38.45 14.0754 38.3668 14.0545 38.2835 14.0407C37.7564 13.9855 37.6732 13.8189 37.7287 13.2919L37.7478 13.1482C37.8524 12.3667 37.9538 11.6073 38.0062 10.8228C38.0616 10.2403 38.2003 10.1015 38.7829 10.1292C39.5874 10.1848 39.6707 10.046 39.5874 9.21384C39.4209 7.52158 39.7261 5.94038 41.0577 4.71959C41.5848 4.22036 42.2506 4.02603 42.9996 4.08155C43.063 4.08155 43.1264 4.11767 43.1898 4.15403C43.2373 4.1813 43.2849 4.20857 43.3325 4.22036C43.3576 4.22675 43.384 4.23437 43.411 4.24223L43.4139 4.24296C43.5053 4.26925 43.6016 4.29701 43.6654 4.27589C43.7208 4.24812 43.7486 4.08155 43.7486 3.9705C43.7243 3.86118 43.6894 3.75701 43.6554 3.65603C43.6119 3.52656 43.57 3.40175 43.5544 3.27719C43.4712 1.36284 44.7751 -0.246125 46.8835 0.0312488C47.1606 0.056554 47.4379 0.196101 47.6941 0.325575L47.7711 0.364147C47.9376 0.447433 48.104 0.537598 48.2705 0.627763C48.4369 0.717928 48.6034 0.808093 48.7698 0.891379L48.8158 0.920861C48.8896 0.967049 48.969 1.01692 48.9918 1.08547C49.015 1.35203 49.0916 1.60435 49.1686 1.85814L49.1692 1.8601C49.2764 2.2129 49.3847 2.56889 49.3525 2.97181C49.297 3.47128 49.2138 3.69313 48.7144 3.80418C48.3815 3.88746 48.326 4.08155 48.3538 4.35893C48.4092 4.88616 48.4925 4.9692 49.0196 4.8584C49.3525 4.80287 49.6854 4.71959 50.0183 4.6363C50.2518 4.58987 50.269 4.40536 50.2852 4.2324L50.2857 4.22675L50.2863 4.2211C50.289 4.19235 50.2917 4.16435 50.2956 4.13708C50.3162 4.05502 50.3518 3.98819 50.3915 3.91424C50.4055 3.88796 50.4198 3.86093 50.4343 3.83194L50.4558 3.86388C50.509 3.942 50.5731 4.03635 50.5731 4.10931C50.6008 4.3034 50.6285 4.44221 50.8505 4.44221C50.906 4.44221 50.9614 4.44221 50.9614 4.46997C51.1189 4.76258 51.386 4.74465 51.6439 4.72745C51.7041 4.72352 51.7638 4.71959 51.8214 4.71959H58.6459C58.6765 4.71959 58.7091 4.71762 58.7427 4.71541L58.7457 4.71516C58.9243 4.70362 59.1265 4.69035 59.173 4.9692C59.173 4.99696 59.284 5.02472 59.3117 5.02472C59.3672 4.9692 59.4227 4.91392 59.4227 4.8584C59.4227 4.55326 59.4227 4.24812 59.4505 3.91523C59.4505 3.86707 59.4782 3.82825 59.5071 3.78796C59.5281 3.75848 59.5497 3.72826 59.5614 3.69313C59.5819 3.72409 59.61 3.75086 59.6373 3.77691L59.6388 3.77838C59.6847 3.82211 59.7278 3.86339 59.7278 3.91523C59.7417 4.04003 59.7417 4.16484 59.7417 4.2862C59.7417 4.40757 59.7417 4.5255 59.7556 4.6363C59.7556 4.83064 59.811 4.9692 60.0607 4.94168C60.255 4.91392 60.2827 5.02472 60.255 5.1913C60.1994 5.44091 60.3381 5.49643 60.5601 5.49643C60.7177 5.49643 60.8775 5.50085 61.0383 5.50552C61.4436 5.51682 61.8551 5.52837 62.2523 5.46867C62.6962 5.38538 63.1401 5.38538 63.5839 5.38538L63.629 5.38514C63.8108 5.38317 64 5.38096 64 5.66276C64 5.94038 63.7781 5.94038 63.5839 5.91262C62.6684 5.88485 61.753 5.85709 60.8652 5.82933C60.5466 5.82933 60.2153 5.85463 59.8885 5.87969C59.7315 5.89173 59.5756 5.90353 59.4227 5.91262C59.3672 5.91262 59.284 5.96814 59.2563 5.99566C59.205 6.2777 58.9882 6.27549 58.7806 6.27352L58.7292 6.27328H56.3433C55.9549 6.27328 55.5944 6.32855 55.3724 6.74474C55.2615 6.93907 55.0673 7.13316 54.8453 7.24421C54.5352 7.39899 54.5621 7.65032 54.5897 7.90829L54.5957 7.96553C54.6164 8.21514 54.684 8.46451 54.7516 8.71412C54.7742 8.79741 54.7967 8.88094 54.8175 8.96422C54.9008 9.2416 54.8175 9.40792 54.5124 9.46345C54.4015 9.49121 54.235 9.63002 54.2073 9.74082C54.1659 9.8789 54.1381 10.017 54.1105 10.1553L54.11 10.1575C54.0823 10.2961 54.0546 10.4346 54.0131 10.5732C53.9877 10.6366 53.9638 10.7029 53.9397 10.7697C53.8583 10.9955 53.7745 11.2277 53.6246 11.3776C53.3148 11.6635 52.9436 11.9087 52.5815 12.148L52.4041 12.2654C52.293 12.321 52.1266 12.3485 51.9879 12.321C51.1279 12.1544 50.2679 11.9048 49.4912 11.4608C49.186 11.2945 48.8531 11.1279 48.5202 10.9616C48.4925 11.1002 48.4647 11.1835 48.4369 11.2667C48.2705 11.5996 48.2983 11.8215 48.6867 11.9603C49.075 12.1266 49.186 12.5428 49.1583 12.9035C49.1305 13.7911 49.075 14.6513 48.9641 15.5111C48.9208 15.7917 48.7603 16.0723 48.5996 16.3528C48.5536 16.4329 48.5078 16.513 48.4647 16.5931C48.3384 16.7951 48.1432 16.7442 47.9419 16.6916L47.8822 16.6764L47.8251 16.6644L47.8109 16.6612C47.6839 16.6334 47.5402 16.6022 47.4938 16.6486C47.3828 16.7594 47.2996 16.9815 47.3273 17.1201C47.3828 17.6196 47.5769 18.0633 47.9654 18.4517C48.8809 19.3674 49.4912 20.5046 49.9905 21.6976L50.6563 23.3621C50.6841 23.4452 50.7396 23.5562 50.8228 23.5562C51.0738 23.6066 51.0977 23.7931 51.1205 23.9722L51.1279 24.0279C51.1279 24.111 51.1579 24.1943 51.1878 24.2775C51.2079 24.3331 51.2279 24.3883 51.2389 24.4439C51.2507 24.5149 51.2727 24.5861 51.294 24.6549L51.2946 24.6569C51.3228 24.7488 51.3499 24.8365 51.3499 24.9156C51.2943 25.4703 51.2389 26.0182 51.1834 26.5661C51.1279 27.1139 51.0725 27.6618 51.017 28.2168C50.9892 28.4664 50.9892 28.744 51.0447 28.9936C51.1834 29.5206 51.1834 30.0479 50.8783 30.5193C50.8505 30.5749 50.8228 30.6581 50.8228 30.7414V32.2393C50.8228 32.6555 51.017 32.9329 51.2666 33.2103C51.3214 33.2707 51.3758 33.3331 51.4308 33.3958L51.4365 33.4021L51.4424 33.4088L51.4489 33.4162C51.6392 33.6326 51.8334 33.8535 52.0434 34.0426C52.176 34.1561 52.3472 34.2181 52.5219 34.2812L52.5323 34.2849C52.6102 34.3131 52.6888 34.3416 52.7646 34.3755C52.8755 34.4171 52.9797 34.4657 53.0836 34.5144L53.0872 34.5161L53.0964 34.5202C53.1963 34.5667 53.2963 34.6129 53.4028 34.6529C53.7633 34.7917 53.7633 35.0969 53.7079 35.402C53.6802 35.485 53.5415 35.6238 53.4304 35.6238C52.2099 35.7904 50.9892 35.7627 49.7685 35.3742C49.6184 35.3241 49.4582 35.3342 49.3001 35.3443C49.1952 35.3509 49.0913 35.3575 48.9918 35.3465C48.7144 35.3465 48.4092 35.3465 48.1318 35.2909C48.0209 35.2632 47.8822 35.0969 47.9098 35.0136C48.0036 34.4989 48.1168 34.0036 48.2333 33.495L48.2983 33.2103C48.3089 33.157 48.3277 33.0995 48.347 33.0412C48.3777 32.9476 48.4092 32.8518 48.4092 32.7666C48.3815 32.1838 48.3538 31.6013 48.2705 31.0466C48.2528 30.851 48.178 30.667 48.1048 30.4869L48.1039 30.4847C48.0631 30.3844 48.0229 30.2854 47.9931 30.1864C47.688 29.1877 47.6047 28.189 47.6047 27.1626C47.6047 27.024 47.6047 26.8574 47.688 26.8019C47.9666 26.5019 47.9638 26.1356 47.9608 25.7671C47.96 25.6585 47.9591 25.5499 47.9654 25.4426C47.9931 25.1097 47.688 24.8878 47.3551 24.9156C46.9111 24.9433 46.5506 24.8045 46.3009 24.4161C45.8015 23.6673 45.2744 22.946 44.7195 22.2246C44.6364 22.1136 44.4699 22.0028 44.359 22.0028C43.8873 21.975 43.6099 21.7254 43.4157 21.337C43.3937 21.2709 43.3368 21.2223 43.3004 21.1913L43.277 21.1704C43.17 21.3068 43.0595 21.4328 42.9516 21.5556L42.9487 21.5591C42.75 21.7854 42.5604 22.0016 42.417 22.2524C42.1674 22.6963 41.9732 23.1678 41.8067 23.6395C41.7109 23.9272 41.6415 24.2279 41.5711 24.5331L41.5676 24.5483L41.5663 24.5539L41.5631 24.5677C41.5343 24.6923 41.5053 24.818 41.4738 24.9433C41.4183 25.2207 41.3074 25.4426 41.0299 25.5536C41.0023 25.5536 40.9467 25.5814 40.9467 25.6091C40.7932 25.9162 40.5692 26.1781 40.3456 26.4395C40.0439 26.7923 39.7426 27.1444 39.6151 27.6065C39.5874 27.6621 39.5874 27.7176 39.6151 27.7729C39.8096 28.3134 39.6 28.7696 39.3929 29.2202C39.3342 29.3479 39.2757 29.4752 39.2267 29.6039C39.1019 29.8951 38.9771 30.1795 38.8523 30.464C38.7274 30.7483 38.6026 31.0326 38.4778 31.3239C38.3667 31.5458 38.2558 31.7401 37.9784 31.8232C37.8951 31.8509 37.812 31.962 37.7564 32.0453C37.2571 32.8774 37.0906 33.7928 37.1738 34.764C37.19 34.8775 37.2347 34.9816 37.2802 35.0873C37.3125 35.1625 37.345 35.2381 37.368 35.3187C37.4235 35.5128 37.4513 35.7349 37.4235 35.929C37.3958 36.04 37.2016 36.2064 37.0906 36.2064C36.4248 36.2341 35.759 36.2341 35.0933 36.2064C34.6771 36.1786 34.5939 36.0678 34.5384 35.6516C34.4552 35.0413 34.6217 34.4588 34.7881 33.9038C34.9823 33.2103 35.1764 32.5167 35.3429 31.8232C35.3706 31.7401 35.3706 31.6013 35.3429 31.5458C34.9823 30.9077 35.1488 30.3252 35.5093 29.7702C35.7868 29.2988 36.0364 28.8271 36.0364 28.2446C36.0364 28.0227 36.1475 27.8006 36.2584 27.6065C36.3859 27.3979 36.523 27.1943 36.6596 26.9913L36.6633 26.9859C36.8527 26.7049 37.041 26.425 37.2016 26.1361L37.2985 25.9686C37.6003 25.4494 37.8897 24.9517 37.8396 24.2498C37.775 23.6894 37.8778 23.1125 37.9789 22.5448C38.0079 22.3816 38.0368 22.2192 38.0616 22.0583C38.0893 21.878 38.124 21.7045 38.1587 21.5311C38.1934 21.3579 38.228 21.1844 38.2558 21.0041C38.2558 20.9913 38.2573 20.9756 38.2589 20.9586C38.2641 20.9019 38.2708 20.8311 38.228 20.8098C38.0275 20.6294 38.0154 20.4054 38.0032 20.1801L38.0029 20.1712C37.9981 20.0875 37.9934 20.0037 37.9784 19.9221C37.8343 19.826 37.8773 19.6676 37.9274 19.4828L37.9506 19.3949ZM52.6537 7.63263C52.2099 7.63263 51.8492 7.63263 51.5163 7.66015C51.4608 7.66015 51.3499 7.88224 51.3776 7.96553C51.4608 8.18738 51.5995 8.38147 51.7383 8.54804C51.7659 8.5758 51.9601 8.5758 51.9879 8.52028C52.1333 8.33847 52.2669 8.15691 52.4118 7.95939C52.4881 7.85546 52.5676 7.74736 52.6537 7.63263ZM51.9879 7.49382H52.5705C52.8201 7.49382 52.8479 7.27197 52.8201 7.1054C52.7924 7.02211 52.6815 6.88355 52.5982 6.85579C52.5618 6.85579 52.5226 6.85038 52.4829 6.84498C52.3413 6.82581 52.1917 6.80542 52.1266 7.02211C52.0988 7.16092 52.0712 7.29973 51.9879 7.49382Z" fill="#B8B8BD"/>
<path d="M23.3585 14.2628H28.7958C29.0593 14.2628 29.1911 14.2628 29.2571 14.197C29.3229 14.1311 29.3229 13.9992 29.3229 13.7356V12.3485C29.3229 12.0433 29.212 11.9601 28.9345 11.9601C26.2436 11.9601 23.5527 11.9601 20.8894 11.9878C19.4469 11.9878 18.3095 11.4331 17.6437 10.1015C17.5604 9.96267 17.505 9.79635 17.4773 9.62977C17.4639 9.41996 17.4455 9.20868 17.4269 8.99665C17.3306 7.89207 17.2327 6.77004 17.8379 5.74604C18.4482 4.71959 19.3914 4.1926 20.5565 4.16484C23.4695 4.13708 26.3824 4.13708 29.2674 4.16484C30.6823 4.16484 31.903 5.13577 32.319 6.46736C32.4301 6.82802 32.3468 6.93883 31.9584 6.93883H21.1392C20.834 6.93883 20.723 7.04987 20.723 7.35501C20.723 7.52257 20.726 7.68693 20.7292 7.8503C20.7354 8.17387 20.7414 8.4935 20.723 8.82541C20.723 9.13055 20.8063 9.21384 21.1114 9.21384C21.9584 9.21384 22.8054 9.21113 23.6531 9.20843H23.6575L23.8558 9.20769C25.6898 9.20155 27.528 9.19541 29.3785 9.21384C30.7655 9.21384 31.8197 9.85187 32.4301 11.1279C32.5965 11.4608 32.6519 11.8493 32.6797 12.2099C32.6979 12.5745 32.692 12.9393 32.6862 13.3037L32.6859 13.314L32.6858 13.3194C32.6827 13.5044 32.6797 13.6894 32.6797 13.8744C32.7074 15.7608 31.1539 17.1201 29.4339 17.1201C27.5002 17.1385 25.5663 17.1324 23.6244 17.1263H23.6061L23.4023 17.1255C22.4927 17.1228 21.5815 17.1201 20.6676 17.1201C20.0849 17.1201 19.5302 16.9813 19.0031 16.6762C18.1985 16.2325 17.6715 15.5389 17.4218 14.6232C17.3386 14.3181 17.505 14.2903 17.7547 14.2903H21.0559C21.8327 14.2628 22.6094 14.2628 23.3585 14.2628Z" fill="#B8B8BD"/>
<path d="M3.30122 22.8627H14.925C15.2857 22.8627 15.3688 22.7519 15.2302 22.4467C15.0359 22.0583 14.8141 21.6699 14.5366 21.337C13.8986 20.6157 13.0663 20.3383 12.1231 20.3383H3.60636C3.1903 20.3383 2.74647 20.3661 2.33029 20.4493C1.10962 20.6434 0 21.9473 0 23.1956V30.353C0 31.8789 1.33159 33.2105 2.77411 33.1828C5.17688 33.2243 7.59512 33.2191 10.0056 33.214H10.0452C10.8499 33.2122 11.6539 33.2105 12.456 33.2105H12.5114C13.9819 33.1272 15.3411 31.962 15.3411 30.2697V26.0808C15.3411 25.8312 15.2579 25.7202 14.9805 25.7202H5.60387C5.27097 25.7202 5.21545 25.8312 5.35413 26.1364C5.88124 27.2736 6.74125 27.8839 8.04508 27.8839H12.0399C12.3172 27.8839 12.4283 27.9672 12.4283 28.2723C12.4099 28.715 12.4159 29.1457 12.422 29.5803C12.4252 29.7992 12.4283 30.0189 12.4283 30.242C12.4283 30.4734 12.4283 30.5913 12.3693 30.6513C12.3081 30.7137 12.1833 30.7137 11.9289 30.7137H3.24582C2.91292 30.7414 2.88516 30.5749 2.88516 30.3252V23.2789C2.88516 22.946 2.99608 22.8627 3.30122 22.8627Z" fill="#B8B8BD"/>
<path fill-rule="evenodd" clip-rule="evenodd" d="M25.4391 33.266C24.9583 33.266 24.4774 33.269 23.9966 33.2722C23.0348 33.2783 22.0731 33.2845 21.1114 33.266C19.8076 33.2383 18.8366 32.6278 18.2818 31.4627C18.1431 31.1298 18.032 30.7692 18.032 30.4085C18.0044 27.9949 18.0044 25.5814 18.032 23.1958C18.032 21.975 19.1418 20.6712 20.3623 20.4771C20.7785 20.3938 21.2223 20.3661 21.6385 20.3661H29.4616C30.3772 20.3661 31.1816 20.5879 31.8752 21.2259C32.4855 21.7809 32.8184 22.4745 32.8184 23.3066V30.3252C32.8184 31.6291 31.903 32.8221 30.6545 33.1272C30.2939 33.2105 29.9332 33.266 29.5727 33.266C28.6684 33.2845 27.752 33.2783 26.8315 33.2722H26.8283L26.7319 33.2714C26.3014 33.2687 25.8702 33.266 25.4391 33.266ZM21.3888 22.7519C21.1114 22.7519 20.9727 22.8074 20.9727 23.1125V30.5196C20.9727 30.7969 21.0836 30.8802 21.3334 30.8802H29.5727C29.85 30.8802 29.9332 30.7692 29.9332 30.5196V23.1958C29.9332 22.8074 29.9056 22.7519 29.4894 22.7519H21.3888Z" fill="#B8B8BD"/>
<path d="M4.07807 7.02211H9.23799C10.8192 7.02211 12.4283 7.02211 13.9819 6.99435C14.8973 6.99435 14.9528 6.91106 14.5921 6.05118C14.5921 6.02342 14.5644 5.96789 14.5366 5.94013C13.9263 4.69182 12.8721 4.10931 11.5128 4.10931C8.87733 4.08155 6.2419 4.08155 3.60636 4.10931C3.13477 4.10931 2.69095 4.16484 2.24712 4.27564C1.02646 4.55301 0 5.82933 0 7.07764V14.2073C0 14.5677 0.110925 14.9284 0.249735 15.2338C0.860008 16.5098 1.94187 17.1201 3.32898 17.1201H11.4574C12.9832 17.1201 14.3147 16.26 14.7586 14.8176C14.8973 14.2903 14.8417 14.1795 14.3147 14.1795H4.10583C3.68964 14.1795 3.66188 14.124 3.66188 13.7078V7.4383C3.66188 7.13316 3.74517 7.02211 4.07807 7.02211Z" fill="#B8B8BD"/>
</svg>
